<?xml version="1.0"?>
<svg xmlns="http://www.w3.org/2000/svg" id="icons" enable-background="new 0 0 64 64" height="512px" viewBox="0 0 64 64" width="512px" class="">
    <g>
        <path d="m12.284 42.931c.029.03.067.049.101.075 3.673 2.584 8.031 3.992 12.615 3.992 4.583 0 8.942-1.408 12.615-3.992.032-.026.071-.045.101-.075.999-.711 1.956-1.491 2.841-2.376 8.577-8.578 8.577-22.534 0-31.111-4.156-4.156-9.68-6.444-15.557-6.444s-11.401 2.288-15.557 6.443c-4.155 4.155-6.443 9.679-6.443 15.557 0 5.877 2.288 11.402 6.443 15.555.885.884 1.842 1.665 2.841 2.376zm1.744-1.21c.147-2.075 1.862-3.721 3.972-3.721h2.588l1.724 1.711c.011.011.025.015.037.024.075.068.157.122.248.164.029.014.057.026.087.037.106.038.216.063.33.064h.002.001c.112 0 .226-.026.335-.065.022-.009.044-.015.065-.024.017-.007.033-.01.049-.018l1.534-.773 1.565.789c.017.009.035.012.053.02.022.01.044.017.067.024.108.038.219.063.329.063h.001.002c.115-.001.227-.027.334-.066.03-.011.058-.023.086-.037.096-.045.185-.103.263-.176.009-.009.02-.011.028-.02l1.691-1.717h2.581c2.11 0 3.825 1.646 3.972 3.721-3.232 2.129-7.012 3.277-10.972 3.277s-7.74-1.148-10.972-3.277zm2.972-18.719h16v3.001c0 4.41-3.589 7.998-8 7.998s-8-3.588-8-7.998zm8.016-3.002c3.002 0 5.267.46 6.905 1.002h-13.852c1.634-.542 3.905-1.002 6.947-1.002zm.095-1.998c.331-.033.639-.22.799-.54l1-2c.005-.01.004-.021.008-.03.028-.059.036-.125.052-.19.016-.066.038-.13.04-.196 0-.011.006-.02.006-.03 0-.049-.021-.092-.028-.14-.011-.072-.017-.143-.042-.211-.023-.061-.06-.11-.094-.165-.033-.055-.063-.111-.106-.159-.049-.053-.109-.09-.168-.131-.04-.028-.069-.066-.114-.089-.01-.005-.021-.003-.03-.008-.061-.028-.128-.037-.194-.053-.064-.015-.126-.037-.191-.039-.011 0-.021-.006-.031-.006h-.394l.274-.559c.243-.496.039-1.095-.456-1.339-.122-.06-.25-.091-.376-.099 4.119.033 7.506 3.192 7.896 7.218-1.846-.658-4.421-1.223-7.851-1.234zm-1.009-5.428-.983 2c-.004.009-.003.019-.007.027-.028.06-.036.127-.051.193-.016.065-.037.128-.039.193-.001.01-.006.018-.006.028 0 .052.021.097.029.146.011.07.017.14.042.207.023.062.062.113.097.168.033.054.061.108.104.155.05.053.11.09.171.132.04.028.07.066.115.089.008.004.017.002.025.006.125.058.262.094.408.095.003 0 .005.001.007.001h.001.382l-.276.553c-.247.494-.047 1.095.447 1.342.107.054.221.08.334.093-3.439.013-6.021.583-7.863 1.245.387-4.052 3.809-7.232 7.961-7.232.015 0 .029.002.044.002-.386-.017-.762.19-.942.557zm.898 23.427c1.045 0 2.053-.162 3-.461v1.051l-1.186 1.205-1.364-.688c-.021-.011-.045-.009-.067-.019-.065-.028-.133-.043-.203-.057-.061-.011-.119-.022-.18-.022-.062 0-.119.012-.18.022-.071.014-.139.029-.205.057-.021.01-.044.008-.065.019l-1.341.676-1.209-1.2v-1.044c.947.299 1.955.461 3 .461zm-14.143-25.144c3.778-3.777 8.8-5.857 14.143-5.857s10.365 2.081 14.143 5.858c7.798 7.798 7.798 20.485 0 28.283-.439.439-.898.85-1.37 1.243-.709-2.526-3.025-4.384-5.773-4.384h-2v-1.352c2.983-1.732 5-4.955 5-8.646v-3.001h1.016c.004 0 .007-.002.011-.002.098-.001.191-.028.284-.058.032-.01.068-.008.098-.021.033-.014.059-.042.089-.06.084-.047.166-.094.232-.162.003-.002.006-.003.009-.006.03-.032.042-.072.067-.107.051-.068.104-.134.136-.214.029-.074.035-.152.046-.229.007-.048.028-.091.028-.141 0-.004-.002-.007-.002-.011-.001-.093-.028-.183-.056-.272-.011-.036-.009-.076-.023-.11-.014-.032-.042-.058-.06-.088-.047-.083-.094-.166-.161-.232-.003-.003-.004-.006-.007-.009-.055-.052-.598-.553-1.707-1.148v-.118c0-5.513-4.486-9.998-10-9.998s-10 4.485-10 9.999v.134c-1.089.588-1.622 1.08-1.676 1.131-.003.002-.004.006-.006.009-.072.07-.124.158-.173.247-.014.026-.038.047-.05.074-.017.039-.016.084-.027.125-.023.085-.051.169-.052.256 0 .004-.002.008-.002.012 0 .05.021.094.028.142.012.077.017.155.047.229.031.08.084.145.134.213.026.035.038.076.068.107.003.002.006.003.009.006.092.095.202.172.326.225.123.052.256.078.388.078h.986v3.05c0 .006.003.011.003.017.024 3.663 2.031 6.858 4.997 8.58v1.351h-2c-2.748 0-5.064 1.858-5.772 4.384-.472-.394-.931-.804-1.37-1.243-3.778-3.777-5.858-8.799-5.858-14.141s2.08-10.366 5.857-14.143z" data-original="#000000" class="active-path" data-old_color="#45e8d2" fill="#45e8d2"/>
        <path d="m25 49.998c5.666 0 11.041-1.879 15.426-5.331l4.166 4.167-.707.707c-.391.391-.391 1.023 0 1.414l11.58 11.58c.944.944 2.2 1.465 3.536 1.465s2.591-.521 3.534-1.465c.944-.944 1.465-2.2 1.465-3.536 0-1.335-.52-2.589-1.464-3.532-.001 0-.001-.001-.001-.001l-11.58-11.583c-.391-.391-1.023-.391-1.414 0l-.708.708-4.166-4.167c7.698-9.802 7.04-24.073-1.989-33.102-4.722-4.722-11-7.322-17.678-7.322-6.677 0-12.955 2.6-17.678 7.322-4.721 4.721-7.322 10.999-7.322 17.677.001 6.678 2.601 12.956 7.322 17.678s11 7.321 17.678 7.321zm36.12 11.123c-1.131 1.135-3.108 1.133-4.241 0l-10.873-10.873.705-.706c.001 0 .002-.001.002-.001s.001-.001.001-.002l2.823-2.823c.001-.001.003-.002.004-.003s.002-.003.003-.004l.704-.705 10.873 10.876h.001v.001c.566.565.878 1.317.878 2.118 0 .802-.312 1.556-.88 2.122zm-13.701-15.116-1.413 1.415-4.053-4.054c.244-.226.488-.453.725-.689.237-.237.464-.48.689-.725zm-38.683-37.269c4.345-4.344 10.121-6.736 16.264-6.736 6.144 0 11.92 2.392 16.264 6.736 8.967 8.967 8.967 23.558 0 32.526-4.345 4.344-10.121 6.736-16.264 6.736-6.144 0-11.92-2.392-16.264-6.735s-6.735-10.12-6.736-16.264c0-6.144 2.393-11.919 6.736-16.263z" data-original="#000000" class="active-path" data-old_color="#45e8d2" fill="#45e8d2"/>
        <path d="m25.046 41.017h-.011c-.552 0-.994.447-.994 1s.452 1 1.005 1c.552 0 1-.447 1-1s-.448-1-1-1z" data-original="#000000" class="active-path" data-old_color="#45e8d2" fill="#45e8d2"/>
    </g>
</svg>
